<svg width="126" height="22" viewBox="0 0 126 22" fill="none" xmlns="http://www.w3.org/2000/svg" xmlns:xlink="http://www.w3.org/1999/xlink">
 <path d="M20.0279 -6.10352e-05H0.498657V19.7559H20.0279V-6.10352e-05Z" fill="#FBFBFC">
 </path>
 <path d="M62.2614 1.69405H63.9272V17.3295H62.2614V1.69405ZM81.2164 5.68265C79.966 5.68265 78.9482 6.18425 78.1152 7.25565C77.2453 8.39525 76.8648 9.62505 76.8648 11.5391C76.8648 15.3011 78.5937 17.5781 81.4665 17.5781C82.7711 17.5911 84.0283 17.0836 84.9657 16.1657L84.3394 15.0261C84.0124 15.3726 83.6177 15.6467 83.1804 15.8307C82.7431 16.0148 82.2728 16.1049 81.7993 16.0953C80.7576 16.0953 79.8007 15.6861 79.2178 14.7071C78.8634 14.1153 78.7394 13.2947 78.7394 12.2233V11.9483H85.2049V11.6975C85.1658 8.98705 84.9135 7.91565 84.0197 6.91245C83.6651 6.51607 83.2306 6.20119 82.7456 5.98905C82.2605 5.77691 81.7361 5.67243 81.2077 5.68265H81.2164ZM78.7307 10.6041C78.8133 8.25665 79.6463 7.07305 81.1229 7.07305C81.4938 7.06253 81.8612 7.14916 82.1892 7.32454C82.5173 7.49993 82.795 7.75811 82.9954 8.07405C83.3085 8.62185 83.4542 9.37425 83.476 10.6041H78.7307ZM94.8129 7.39205C94.9793 7.81172 95.0643 8.25988 95.063 8.71205V17.3295H93.4168V9.64705C93.4168 8.43925 93.3341 8.14445 93.0427 7.75725C92.8982 7.59706 92.7206 7.47104 92.5225 7.38814C92.3244 7.30525 92.1107 7.26753 91.8966 7.27765C91.0637 7.27765 89.7741 8.00805 89.0238 8.87265V17.3295H87.4406V8.58005C87.4406 6.96085 87.0469 6.18645 87.0469 6.18645L88.628 5.70685C88.8641 6.26847 88.994 6.86996 89.0107 7.48005C90.0981 6.29645 91.1724 5.72005 92.2728 5.72005C92.812 5.71453 93.3407 5.87028 93.7927 6.16776C94.2446 6.46523 94.5995 6.89116 94.8129 7.39205V7.39205ZM99.5408 6.00165H102.218L101.72 7.34585H99.4778V14.6609C99.4778 15.9149 99.7888 16.3483 100.811 16.3483C101.268 16.3483 101.148 16.3483 101.439 16.1943L101.67 17.3339C101.245 17.6215 100.736 17.7556 100.226 17.7145C99.756 17.7242 99.2911 17.6154 98.8732 17.3977C98.1447 17.0105 97.8728 16.2801 97.8728 15.1405V7.34585H96.5201V6.00165H97.8728V1.70285H99.5408V6.00165ZM74.7487 1.67865H73.1242V5.45605C73.1242 6.27445 73.1438 7.21605 73.1438 7.21605C72.8277 6.76209 72.4061 6.3938 71.9161 6.14364C71.4261 5.89349 70.8827 5.76917 70.334 5.78165C69.6066 5.77262 68.8991 6.02259 68.3354 6.48785C66.9175 7.55705 66.1911 9.33465 66.1911 11.7503C66.1911 15.3737 67.7308 17.4923 70.4166 17.4923C71.6258 17.4923 72.4174 17.1073 73.1655 16.1723C73.1887 16.5689 73.2656 16.9605 73.3939 17.3361H75.0619C74.8314 16.6761 74.7487 15.6245 74.7487 13.6665V1.67865ZM73.1046 14.4387C72.9641 14.7567 72.7509 15.0364 72.4827 15.2549C71.815 15.7785 71.3366 15.9831 70.4841 15.9831C69.5272 15.9831 68.8813 15.5959 68.4028 14.6631C68.0679 14.0031 67.9853 13.0219 67.9853 11.6997C67.9853 10.1047 68.1506 9.27965 68.6508 8.41945C68.8349 8.06082 69.1132 7.76044 69.455 7.55127C69.7968 7.34209 70.189 7.2322 70.5885 7.23365C71.815 7.23365 72.5892 7.62305 73.109 8.41945L73.1046 14.4387ZM123.254 5.98405L119.692 17.7365C118.983 20.0201 118.152 21.5205 116.339 22.0001L115.86 20.7923C116.874 20.4447 117.404 19.9387 117.848 18.7045C117.68 17.8091 117.587 17.4197 117.587 17.4197C117.463 16.6893 116.9 14.4783 116.547 13.3409L114.316 6.23045L115.923 5.63645L118.046 12.9977C118.359 14.0691 118.67 15.8225 118.67 15.8225H118.713C118.713 15.8225 119.107 14.3661 119.366 13.4311L121.406 5.97965L123.254 5.98405ZM124.657 15.2615C124.657 14.8655 124.44 14.7093 124.005 14.7093H123.352V16.5903H123.678V15.7763H123.876L124.331 16.5859H124.677L124.207 15.7631C124.27 15.7625 124.332 15.7485 124.39 15.7222C124.447 15.6959 124.499 15.6577 124.541 15.61C124.583 15.5624 124.615 15.5064 124.635 15.4457C124.654 15.3849 124.661 15.3206 124.655 15.2571L124.657 15.2615ZM123.683 15.5145V14.9711H123.974C124.142 14.9711 124.331 15.0085 124.331 15.2285C124.331 15.4815 124.163 15.5101 123.97 15.5101L123.683 15.5145ZM123.952 13.9987C123.624 13.9797 123.298 14.0609 123.016 14.2316C122.734 14.4023 122.509 14.6547 122.37 14.9562C122.232 15.2577 122.185 15.5944 122.238 15.9226C122.291 16.2508 122.439 16.5556 122.665 16.7973C122.891 17.0391 123.183 17.2068 123.504 17.2787C123.825 17.3506 124.16 17.3234 124.465 17.2006C124.771 17.0778 125.033 16.865 125.217 16.5899C125.402 16.3148 125.501 15.99 125.501 15.6575C125.513 15.2289 125.357 14.813 125.066 14.5011C124.775 14.1892 124.374 14.0069 123.95 13.9943L123.952 13.9987ZM123.952 16.9929C123.3 16.9929 122.782 16.4319 122.782 15.6575C122.782 14.8831 123.304 14.3199 123.952 14.3199C124.6 14.3199 125.125 14.8809 125.125 15.6575C125.125 16.4341 124.598 16.9885 123.95 16.9885L123.952 16.9929ZM110.599 7.32385V14.6389C110.599 15.8929 110.913 16.3263 111.93 16.3263C112.389 16.3263 112.27 16.3263 112.561 16.1701L112.792 17.3097C112.367 17.5981 111.858 17.7323 111.348 17.6903C110.878 17.7021 110.413 17.5955 109.995 17.3801C109.266 16.9929 108.997 16.2647 108.997 15.1229V7.32385H107.642V5.97965H108.997V1.67865H110.662V5.97965H113.272L112.772 7.32385H110.599ZM103.988 6.00385L105.674 5.72005V17.3295H103.988V6.00385Z" fill="#FBFBFC">
 </path>
 <path d="M31.6086 2.96121C30.8148 2.48161 30.0863 2.21981 27.6789 2.21981H23.9557V17.3646H26.8133V11.7876H28.3813C29.9471 11.7876 30.556 11.6116 31.2085 11.286C32.7547 10.5006 33.6485 8.88801 33.6485 6.88601C33.642 5.13921 32.9309 3.74001 31.6086 2.96121ZM30.182 8.51841C29.7971 9.14981 29.4513 9.30161 28.29 9.30161H26.8133V4.68161H28.6227C29.8253 4.68161 30.5365 5.53301 30.5365 6.94761C30.5278 7.66701 30.4277 8.10481 30.182 8.51841ZM34.4793 3.13501C34.4682 2.66506 34.642 2.20989 34.9625 1.86954C35.2831 1.5292 35.7241 1.33154 36.1886 1.32001C37.1042 1.32001 37.8371 2.12521 37.8371 3.12841C37.8537 3.36172 37.8226 3.596 37.7458 3.81663C37.6689 4.03726 37.548 4.2395 37.3904 4.41074C37.2329 4.58199 37.0422 4.71857 36.8302 4.81196C36.6182 4.90534 36.3894 4.95354 36.1582 4.95354C35.9269 4.95354 35.6982 4.90534 35.4862 4.81196C35.2742 4.71857 35.0835 4.58199 34.9259 4.41074C34.7684 4.2395 34.6474 4.03726 34.5706 3.81663C34.4938 3.596 34.4627 3.36172 34.4793 3.12841V3.13501ZM34.7859 6.40201L37.5109 5.94001V17.3646H34.7859V6.40201ZM54.7936 14.5112L53.3278 14.4892C53.0429 14.4892 52.8798 14.3792 52.8798 14.2274C52.8798 13.9216 53.2669 13.662 53.9672 13.3122C54.1021 13.3285 54.238 13.3359 54.3738 13.3342C56.5921 13.3342 58.2231 11.9372 58.2231 10.021C58.2409 9.35644 58.0234 8.70732 57.6099 8.19061C57.846 8.22835 58.0842 8.2504 58.3232 8.25661C58.6822 8.26409 59.0386 8.19398 59.3686 8.05095C59.6986 7.90792 59.9947 7.69526 60.237 7.42721L59.0974 5.57481C58.526 6.1619 57.754 6.50517 56.94 6.53401C56.5041 6.50882 56.073 6.42826 55.6569 6.29421C55.0466 6.11611 54.4154 6.02141 53.7801 6.01261C51.1139 6.01261 49.385 7.49321 49.385 9.78121C49.385 11.4378 50.1157 12.463 51.6228 12.8766C49.9113 13.354 49.709 14.0316 49.709 14.751C49.709 15.5144 50.0135 16.0138 50.5028 16.2096C50.9921 16.4054 51.7859 16.5352 53.0059 16.5594L54.1651 16.5814C55.2524 16.6034 56.0788 16.9092 56.0788 17.9014C56.0709 18.1321 56.0053 18.3571 55.8882 18.5552C55.7711 18.7533 55.6062 18.9182 55.409 19.0344C54.9741 19.3182 54.3912 19.404 53.6997 19.404C52.4383 19.404 51.7424 18.9244 51.7424 18.0312C51.7292 17.7859 51.7708 17.5408 51.8642 17.314H49.3415C49.1673 17.6649 49.0835 18.0546 49.0979 18.447C49.0969 18.819 49.1723 19.1871 49.3194 19.5279C49.4666 19.8688 49.6822 20.175 49.9526 20.427C50.8877 21.3642 52.4144 21.626 53.8998 21.626C55.5265 21.626 57.0966 21.2344 58.01 20.1872C58.576 19.557 58.8764 18.7282 58.8473 17.8772C58.8473 16.874 58.5602 16.1172 57.9513 15.5034C57.2141 14.7928 56.3898 14.5332 54.7936 14.52V14.5112ZM52.1273 9.80321C52.1273 8.75821 52.7167 8.14661 53.754 8.14661C54.7914 8.14661 55.4047 8.75821 55.4047 9.80321C55.4047 10.8482 54.8131 11.3938 53.7345 11.3938C52.7776 11.3938 52.1273 10.9362 52.1273 9.80321ZM44.3504 8.48321C43.8024 8.48321 43.0891 8.87701 42.4584 9.48421V17.3646H39.7313V9.27961C39.7453 8.39356 39.6213 7.51081 39.3638 6.66381L41.7864 5.92461C42.0265 6.35041 42.1595 6.8294 42.1735 7.31941C42.5566 7.01846 42.9575 6.74148 43.374 6.49001C43.9521 6.1835 44.5938 6.0199 45.2464 6.01261C46.4078 6.01261 47.4212 6.67261 47.7496 7.62521C47.9071 8.13969 47.9762 8.67769 47.954 9.21581V17.3558H45.266V10.12C45.266 8.84401 45.0638 8.47441 44.3504 8.47441V8.48321Z" fill="#FBFBFC">
 </path>
</svg>